<?xml version="1.0" standalone="no"?>
<!DOCTYPE svg PUBLIC "-//W3C//DTD SVG 20010904//EN"
 "http://www.w3.org/TR/2001/REC-SVG-20010904/DTD/svg10.dtd">
<svg version="1.0" xmlns="http://www.w3.org/2000/svg"
 width="512.000000pt" height="512.000000pt" viewBox="0 0 512.000000 512.000000"
 preserveAspectRatio="xMidYMid meet" class="bg-red-700 animated-spin">
<metadata>
Created by potrace 1.14, written by Peter Selinger 2001-2017
</metadata>
<g transform="translate(0.000000,512.000000) scale(0.100000,-0.100000)"
fill="#000000" stroke="none">
<path d="M2215 4819 c-192 -164 -358 -308 -369 -319 l-20 -20 114 0 115 1 259
229 c142 127 260 230 263 230 2 0 120 -104 263 -230 l259 -231 112 3 111 3
-113 95 c-63 52 -232 195 -377 318 -144 122 -264 222 -265 221 -1 0 -159 -135
-352 -300z"/>
<path d="M2330 4576 c-145 -138 -224 -206 -244 -210 -16 -3 -72 -6 -125 -6
l-96 0 -83 -82 -82 -83 -263 -8 c-144 -4 -290 -10 -324 -13 l-63 -6 0 -302 0
-302 -75 -74 -75 -74 0 -101 1 -100 -231 -225 -230 -225 240 -208 240 -208 0
-133 0 -132 65 -58 65 -57 0 -850 0 -849 1517 0 1516 0 -6 282 c-4 156 -7 537
-8 848 l-1 565 83 76 82 76 -6 109 -6 110 224 224 c124 124 225 228 225 231 0
3 -101 101 -225 218 l-224 212 6 112 6 113 -76 63 -77 62 -2 307 c-3 264 -5
307 -18 308 -8 1 -144 2 -301 3 l-286 1 -116 89 -116 88 -110 5 -110 6 -230
201 c-127 110 -234 201 -238 201 -5 0 -105 -92 -223 -204z m327 -504 c88 -55
131 -64 318 -66 152 -1 176 -4 228 -25 155 -61 240 -189 269 -403 l12 -88 208
0 208 0 0 -1230 0 -1230 -1335 0 -1335 0 2 1203 3 1202 208 3 207 2 0 69 c0
81 28 199 65 272 32 63 114 151 159 173 59 28 161 46 317 55 221 14 331 53
360 130 l10 25 24 -31 c14 -17 46 -44 72 -61z m424 -3218 c31 -15 59 -66 59
-104 0 -16 -6 -20 -35 -20 -30 0 -37 4 -49 35 -19 44 -60 49 -78 10 -14 -32 1
-68 39 -91 84 -51 103 -68 117 -105 20 -50 20 -92 0 -134 -19 -41 -51 -63
-101 -70 -62 -8 -105 13 -130 65 -34 65 -31 80 15 80 34 0 39 -3 50 -34 7 -19
22 -38 32 -41 46 -15 84 42 61 91 -6 13 -34 39 -63 58 -87 55 -103 78 -103
144 0 61 17 96 57 119 32 17 93 16 129 -3z m-1781 -234 l0 -240 -40 0 -40 0 0
240 0 240 40 0 40 0 0 -240z m523 210 c43 -37 59 -92 59 -200 0 -186 -50 -250
-197 -250 l-65 0 0 240 0 240 85 0 c79 0 86 -2 118 -30z m318 20 c49 -27 66
-136 28 -184 l-21 -26 22 -18 c48 -39 42 -154 -9 -206 -30 -30 -35 -31 -126
-34 l-95 -4 0 241 0 241 91 0 c50 0 99 -5 110 -10z m508 -15 c42 -36 51 -99
22 -157 l-21 -42 22 -23 c30 -32 35 -116 11 -163 -26 -51 -72 -70 -165 -70
l-78 0 0 240 0 240 89 0 c81 0 92 -2 120 -25z m181 -215 l0 -240 -40 0 -40 0
0 240 0 240 40 0 40 0 0 -240z m590 205 l0 -35 -70 0 -70 0 0 -60 0 -60 70 0
70 0 0 -35 0 -35 -70 0 -70 0 0 -70 0 -70 76 0 75 0 -3 -37 -3 -38 -112 -3
-113 -3 0 241 0 240 110 0 110 0 0 -35z m124 18 c2 -10 12 -85 22 -168 l18
-150 17 95 c9 52 22 128 29 168 l12 72 37 0 37 0 24 -147 c13 -82 26 -154 30
-160 3 -7 14 53 24 134 10 81 21 153 23 160 3 7 22 13 42 13 l38 0 -38 -207
c-21 -115 -41 -223 -44 -240 -5 -31 -9 -33 -45 -33 -36 0 -40 2 -45 33 -3 17
-16 90 -29 162 -21 122 -23 127 -29 85 -4 -25 -17 -98 -29 -162 l-22 -118 -38
0 c-31 0 -39 4 -43 23 -8 37 -75 431 -75 444 0 21 78 17 84 -4z m-2008 -115
c13 -13 26 -38 30 -55 6 -32 6 -33 -30 -33 -30 0 -38 5 -46 26 -14 35 -55 31
-55 -6 0 -19 10 -30 47 -50 25 -14 55 -33 66 -43 44 -40 35 -140 -14 -172 -33
-21 -108 -22 -139 -1 -28 18 -41 40 -46 75 -4 21 0 24 29 26 27 1 36 -3 45
-22 19 -43 77 -38 77 7 0 21 -18 37 -79 70 -54 30 -73 62 -67 113 5 41 28 74
61 88 33 14 96 3 121 -23z m854 -158 l0 -40 -70 0 -70 0 0 40 0 40 70 0 70 0
0 -40z"/>
<path d="M2780 3197 c-74 -25 -151 -71 -194 -116 l-29 -31 -24 35 c-13 19 -43
46 -67 60 -82 48 -148 55 -553 55 l-373 0 0 -50 0 -50 375 0 c412 0 426 -2
508 -64 34 -26 77 -109 64 -122 -3 -4 -19 3 -36 15 -69 50 -83 51 -557 51
l-444 0 0 -50 0 -50 438 0 437 0 50 -24 c60 -28 105 -77 105 -115 0 -39 -9
-43 -40 -21 -65 46 -114 50 -622 50 l-478 0 0 -810 0 -810 524 0 524 0 87 -40
86 -40 82 42 82 41 521 -5 521 -5 6 321 c4 177 7 545 7 819 l0 498 -497 -3
-498 -3 -70 -26 c-38 -15 -78 -30 -87 -34 -14 -6 -18 -2 -18 16 0 44 37 89 94
115 l54 25 461 -1 461 0 0 55 0 55 -452 0 c-458 0 -510 -4 -576 -39 -19 -10
-22 -9 -22 9 0 49 58 118 122 144 32 14 98 16 433 16 l395 0 0 55 0 55 -367 0
c-354 -1 -371 -1 -433 -23z m-488 -528 c64 -14 104 -33 141 -68 65 -60 62 -19
65 -759 l3 -674 -30 21 c-16 12 -49 30 -73 41 -41 19 -68 20 -500 20 l-458 0
0 715 0 715 400 0 c257 0 418 -4 452 -11z m1378 -704 l0 -715 -454 0 c-491 0
-501 -1 -573 -56 l-33 -25 0 659 c0 680 1 695 41 753 22 32 105 77 161 88 24
5 226 9 451 10 l407 1 0 -715z"/>
<path d="M1700 620 c0 -99 4 -170 9 -170 5 0 21 4 36 10 38 14 55 65 55 163 0
123 -21 167 -79 167 -20 0 -21 -5 -21 -170z"/>
<path d="M2020 730 c0 -59 0 -60 28 -60 41 0 65 22 65 58 0 42 -19 62 -59 62
l-34 0 0 -60z"/>
<path d="M2020 525 l0 -75 34 0 c47 0 66 22 66 75 0 53 -19 75 -66 75 l-34 0
0 -75z"/>
<path d="M2520 729 l0 -62 37 6 c42 7 53 20 53 63 0 39 -16 54 -57 54 l-33 0
0 -61z"/>
<path d="M2520 525 l0 -75 34 0 c41 0 66 28 66 75 0 47 -25 75 -66 75 l-34 0
0 -75z"/>
<path d="M750 3980 l0 -500 73 60 74 60 6 227 c4 124 7 284 7 355 l0 128 369
0 369 0 54 73 c30 39 58 78 62 85 6 9 -98 12 -503 12 l-511 0 0 -500z"/>
<path d="M3351 4464 c2 -6 29 -42 59 -81 l55 -72 373 0 372 -1 1 -347 0 -348
74 -52 c40 -29 76 -53 79 -53 3 0 6 214 6 475 l0 475 -202 0 c-112 0 -342 3
-512 7 -196 4 -307 3 -305 -3z"/>
<path d="M365 3099 c-192 -186 -350 -341 -352 -346 -1 -4 170 -155 380 -336
l382 -327 3 106 c2 72 -1 111 -9 121 -7 8 -129 112 -271 231 l-258 216 102
106 c57 58 165 168 241 246 l138 140 -3 91 -3 90 -350 -338z"/>
<path d="M4370 3353 l0 -90 258 -244 c141 -134 258 -246 259 -249 1 -3 -121
-106 -270 -230 l-272 -225 -3 -93 c-2 -59 1 -93 7 -90 6 1 153 120 328 263
174 143 345 283 380 311 l63 52 -343 313 c-188 172 -357 326 -374 343 l-33 30
0 -91z"/>
<path d="M777 1948 c-4 -88 -6 -393 -11 -1721 l-1 -217 1787 -3 1788 -2 0
1023 c0 562 -3 1022 -6 1022 -3 0 -32 -21 -65 -46 l-59 -45 0 -905 0 -904
-1650 0 -1650 0 0 893 0 893 -42 40 c-24 22 -53 48 -64 57 l-22 18 -5 -103z"/>
</g>
</svg>
